# xmcd
#
# Track frame offsets: 
#        150
#        11665
#        18643
#        27537
#        36161
#        46681
#        65696
#        85521
#        94179
#        117224
#        125520
#        135738
#
# Disc length: 1896 seconds
#
# Revision: 0
# Processed by: cddbd v1.5.2PL0 Copyright (c) Steve Scherf et al.
# Submitted via: ExactAudioCopy v0.99pb5
#
DISCID=9b07660c
DTITLE=Sister Rosetta Tharpe - I Saw The Light
DYEAR=2003
DGENRE=Gospel
TTITLE0=Nothing Between
TTITLE1=He's The Lily Of The Valley
TTITLE2=Seeking For Me
TTITLE3=Shine For Jesus
TTITLE4=Never Alone
TTITLE5=I Do, Don't You?
TTITLE6=God Leads Us Along
TTITLE7=The Family Prayer
TTITLE8=What Are They Doin' In Heaven
TTITLE9=I Saw The Light
TTITLE10=Blow Ye The Trumpet In Zion
TTITLE11=Oh, The Joy That Came To Me
EXTD=
EXTT0=
EXTT1=
EXTT2=
EXTT3=
EXTT4=
EXTT5=
EXTT6=
EXTT7=
EXTT8=
EXTT9=
EXTT10=
EXTT11=
PLAYORDER=
